# xmcd
#
# Track frame offsets: 
#        150
#        12737
#        27097
#        40980
#        51747
#        67210
#        78802
#        91342
#        105112
#        119297
#        132852
#
# Disc length: 2021 seconds
#
# Revision: 1
# Processed by: cddbd v1.5.2PL0 Copyright (c) Steve Scherf et al.
# Submitted via: ExactAudioCopy v0.99pb4
#
DISCID=8f07e30b
DTITLE=Johnny Cash - Sunday Morning Coming Down
DYEAR=1973
DGENRE=Country
TTITLE0=Folsom Prison Blues
TTITLE1=Orange Blossom Special
TTITLE2=It Ain't Me Babe
TTITLE3=Big River
TTITLE4=I'm Gonna Try to Be That Way
TTITLE5=Green, Green Grass of Home
TTITLE6=Understand Your Man
TTITLE7=If I Were a Carpenter
TTITLE8=The Long Black Veil
TTITLE9=Don't Think Twice, It's All Right
TTITLE10=Sunday Morning Coming Down
EXTD=
EXTT0=
EXTT1=
EXTT2=
EXTT3=
EXTT4=
EXTT5=
EXTT6=
EXTT7=
EXTT8=
EXTT9=
EXTT10=
PLAYORDER=
